<svg xmlns="http://www.w3.org/2000/svg" version="1.1" xmlns:xlink="http://www.w3.org/1999/xlink" xmlns:svgjs="http://svgjs.dev/svgjs" width="1000" height="323" viewBox="0 0 1000 323"><g transform="matrix(1,0,0,1,-0.6060439426415769,0.14372900913562603)"><svg viewBox="0 0 396 128" data-background-color="#ffffff" preserveAspectRatio="xMidYMid meet" height="323" width="1000" xmlns="http://www.w3.org/2000/svg" xmlns:xlink="http://www.w3.org/1999/xlink"><g id="tight-bounds" transform="matrix(1,0,0,1,0.23999340128605695,-0.05694290380509415)"><svg viewBox="0 0 395.5199999999999 128.11390052971646" height="128.11390052971646" width="395.5199999999999"><g><svg viewBox="0 0 634.6100720171306 205.55818072805138" height="128.11390052971646" width="395.5199999999999"><g transform="matrix(1,0,0,1,239.0900720171306,74.37138158458244)"><svg viewBox="0 0 395.52 56.81541755888651" height="56.81541755888651" width="395.52"><g id="textblocktransform"><svg viewBox="0 0 395.52 56.81541755888651" height="56.81541755888651" width="395.52" id="textblock"><g><svg viewBox="0 0 395.52 56.81541755888651" height="56.81541755888651" width="395.52"><g transform="matrix(1,0,0,1,0,0)"><svg width="395.52" viewBox="2.25 -37.84000015258789 273.6099853515625 39.29999923706055" height="56.81541755888651" data-palette-color="#5352ed"><path d="M2.25-3.32L2.25-3.32 2.25-36.18 23.34-36.91Q25.29-36.91 27-36.67 28.71-36.43 30.46-35.75 32.2-35.08 33.44-34.02 34.67-32.96 35.45-31.2 36.23-29.44 36.23-27.15L36.23-27.15Q36.23-24.1 34.89-22.2 33.54-20.31 30.86-18.85L30.86-18.85Q34.01-17.97 35.66-15.81 37.3-13.65 37.3-10.35L37.3-10.35Q37.3-7.91 36.38-5.97 35.45-4.03 33.98-2.81 32.52-1.59 30.54-0.78 28.56 0.02 26.62 0.35 24.68 0.68 22.66 0.68L22.66 0.68Q21.48 0.68 19.13 0.63 16.77 0.59 15.58 0.59L15.58 0.59Q8.79 0.59 3.13 0.78L3.13 0.78Q2.32-0.51 2.25-3.32ZM16.26-28.03L16.26-28.03Q16.26-26.93 16.33-24.76 16.41-22.58 16.41-21.48L16.41-21.48Q16.41-21.02 16.99-20.95L16.99-20.95Q17.33-21 18.18-21.11 19.02-21.22 19.51-21.29 20-21.36 20.69-21.64 21.39-21.92 21.78-22.31 22.17-22.71 22.46-23.45 22.75-24.19 22.75-25.2L22.75-25.2Q22.75-28.91 17.63-28.91L17.63-28.91Q16.6-28.74 16.43-28.56L16.43-28.56Q16.26-28.37 16.26-28.03ZM16.7-10.3L16.7-9.42Q16.7-7.62 16.89-7.62L16.89-7.62 17.68-7.62Q18.63-7.62 19.32-7.68 20.02-7.74 20.83-7.98 21.63-8.23 22.12-8.65 22.61-9.08 22.95-9.86 23.29-10.64 23.29-11.72L23.29-11.72Q23.29-12.33 23.17-12.84 23.05-13.35 22.78-13.72 22.51-14.09 22.25-14.36 22-14.62 21.52-14.81 21.04-14.99 20.74-15.1 20.43-15.21 19.82-15.28 19.21-15.36 18.95-15.38 18.68-15.41 18.02-15.44 17.36-15.48 17.19-15.48L17.19-15.48 17.19-14.55Q17.16-14.28 16.93-12.74 16.7-11.21 16.7-10.3L16.7-10.3ZM38.91-18.36L38.91-18.36 38.91-21.04Q39.16-24.46 40.4-27.28 41.65-30.1 43.56-32.03 45.48-33.96 48-35.29 50.51-36.62 53.26-37.23 56-37.84 58.93-37.84L58.93-37.84Q60.54-37.84 62.29-37.57 64.04-37.3 65.99-36.72 67.94-36.13 69.74-35 71.53-33.86 72.7-32.32L72.7-32.32Q75.12-29.37 76.21-26.14 77.29-22.9 77.29-18.95L77.29-18.95Q77.37-10.69 73.68-5.66L73.68-5.66 72.6-4.2Q71.19-2.25 68.55-0.94 65.92 0.37 63.28 0.87 60.64 1.37 57.96 1.37L57.96 1.37Q54.81 1.37 52.15 0.73 49.48 0.1 47.56-0.98 45.63-2.05 44.11-3.59 42.6-5.13 41.64-6.84 40.67-8.54 40.05-10.55 39.43-12.55 39.17-14.45 38.91-16.36 38.91-18.36ZM58.35-28.03L58.35-28.03Q57.35-28.03 56.55-27.56 55.76-27.1 55.26-26.44 54.76-25.78 54.39-24.67 54.03-23.56 53.85-22.67 53.68-21.78 53.59-20.42 53.49-19.07 53.48-18.32 53.46-17.58 53.46-16.41L53.46-16.41Q53.46-15.28 53.55-14.27 53.64-13.26 53.92-12.12 54.2-10.99 54.65-10.14 55.1-9.3 55.89-8.73 56.69-8.15 57.71-8.11L57.71-8.11Q58.79-8.11 59.62-8.46 60.45-8.81 61.01-9.36 61.57-9.91 61.96-10.84 62.35-11.77 62.56-12.62 62.77-13.48 62.88-14.75 62.99-16.02 63.01-16.93 63.03-17.85 63.03-19.24L63.03-19.24Q63.03-20.26 62.97-21.14 62.91-22.02 62.77-23.1 62.62-24.17 62.28-24.99 61.94-25.81 61.45-26.53 60.96-27.25 60.17-27.64 59.37-28.03 58.35-28.03ZM79.05-18.36L79.05-18.36 79.05-21.04Q79.29-24.46 80.54-27.28 81.78-30.1 83.7-32.03 85.62-33.96 88.13-35.29 90.64-36.62 93.39-37.23 96.14-37.84 99.07-37.84L99.07-37.84Q100.68-37.84 102.42-37.57 104.17-37.3 106.12-36.72 108.08-36.13 109.87-35 111.66-33.86 112.84-32.32L112.84-32.32Q115.25-29.37 116.34-26.14 117.43-22.9 117.43-18.95L117.43-18.95Q117.5-10.69 113.81-5.66L113.81-5.66 112.74-4.2Q111.32-2.25 108.69-0.94 106.05 0.37 103.41 0.87 100.78 1.37 98.09 1.37L98.09 1.37Q94.94 1.37 92.28 0.73 89.62 0.1 87.69-0.98 85.76-2.05 84.25-3.59 82.73-5.13 81.77-6.84 80.81-8.54 80.18-10.55 79.56-12.55 79.3-14.45 79.05-16.36 79.05-18.36ZM98.48-28.03L98.48-28.03Q97.48-28.03 96.69-27.56 95.89-27.1 95.39-26.44 94.89-25.78 94.53-24.67 94.16-23.56 93.99-22.67 93.82-21.78 93.72-20.42 93.62-19.07 93.61-18.32 93.6-17.58 93.6-16.41L93.6-16.41Q93.6-15.28 93.68-14.27 93.77-13.26 94.05-12.12 94.33-10.99 94.78-10.14 95.23-9.3 96.03-8.73 96.82-8.15 97.85-8.11L97.85-8.11Q98.92-8.11 99.75-8.46 100.58-8.81 101.14-9.36 101.7-9.91 102.09-10.84 102.49-11.77 102.69-12.62 102.9-13.48 103.01-14.75 103.12-16.02 103.14-16.93 103.17-17.85 103.17-19.24L103.17-19.24Q103.17-20.26 103.11-21.14 103.05-22.02 102.9-23.1 102.75-24.17 102.41-24.99 102.07-25.81 101.58-26.53 101.09-27.25 100.3-27.64 99.51-28.03 98.48-28.03ZM133.24 0.78L122.5 0.78Q121.97 0.78 121.68 0.67 121.4 0.56 121.32 0.42 121.23 0.27 121.04-0.15L121.04-0.15 121.04-34.86Q121.04-35.4 121.05-35.64 121.06-35.89 121.14-36.22 121.21-36.55 121.37-36.68 121.53-36.82 121.82-36.91 122.11-37.01 122.55-37.01L122.55-37.01 132.56-37.01Q136.08-37.01 136.08-36.13L136.08-36.13 136.08-36.08Q135.98-27 135.98-22.56L135.98-22.56 142.84-36.84 147.89-36.82Q158.24-36.82 158.24-36.33L158.24-36.33Q158.24-36.23 158.15-36.23L158.15-36.23Q153.41-27.69 148.53-19.24L148.53-19.24 148.53-18.55 149.53-17.92 159.73-0.37Q159.73 0.02 159.17 0.49L159.17 0.49 143.5 0.49 136.52-13.13Q136.37-11.79 136.3-9.23 136.22-6.67 136.17-5.86L136.17-5.86 136.17-0.1Q136 0.78 133.24 0.78L133.24 0.78ZM170.45 0.63L167.57 0.63Q166.88 0.63 165.98 0.67 165.08 0.71 164.59 0.73 164.1 0.76 163.48 0.72 162.86 0.68 162.54 0.55 162.22 0.42 161.87 0.15 161.51-0.12 161.35-0.59 161.2-1.05 161.09-1.73 160.98-2.42 160.98-3.37L160.98-3.37Q160.98-8.64 161.17-17.76 161.37-26.88 161.37-31.15L161.37-31.15Q161.37-36.43 161.9-36.72L161.9-36.72 170.99-36.72Q173.4-36.72 174.59-36.44 175.77-36.16 176.16-35.6 176.55-35.03 176.55-33.89L176.55-33.89Q176.55-33.54 176.5-32.56 176.45-31.57 176.45-30.91L176.45-30.91 176.45-29.79Q176.45-29 176.38-27.44 176.31-25.88 176.31-25.1L176.31-25.1 176.31-24.61Q176.36-24.46 176.36-24.22L176.36-24.22 177.33-24.22Q177.75-24.22 178.6-24.19 179.46-24.17 179.87-24.17L179.87-24.17Q181-24.17 181.53-24.32L181.53-24.32 181.53-34.47Q181.53-35.69 181.66-36.22 181.78-36.74 182-36.88 182.22-37.01 182.8-37.01L182.8-37.01Q183.12-37.01 183.83-36.99 184.54-36.96 184.85-36.96L184.85-36.96 186.66-37.04Q188.49-37.11 189.93-37.11L189.93-37.11Q196.57-37.11 196.57-35.64L196.57-35.64Q196.57-35.25 196.6-34.52 196.62-33.79 196.62-33.4L196.62-33.4Q196.62-32.54 196.6-30.91 196.57-29.27 196.57-28.42L196.57-28.42Q196.57-25.88 196.65-20.85 196.72-15.82 196.72-13.28L196.72-13.28Q196.72-13.06 196.69-12.73 196.67-12.4 196.67-12.3L196.67-12.3 196.67-11.13Q196.67-9.57 196.72-8.79L196.72-8.79 196.72-8.25Q196.67-8.15 196.67-7.96L196.67-7.96Q196.67-6.67 196.72-4.03 196.77-1.39 196.77-0.1L196.77-0.1Q196.6 0.78 192.08 0.78L192.08 0.78 181.92 0.78 181.19-0.24 181.19-1.86Q181.19-3.49 181.22-6.69 181.24-9.89 181.24-11.52L181.24-11.52Q181.24-12.08 181.11-12.29 180.97-12.5 180.56-12.5L180.56-12.5 179.68-12.5Q178.02-12.5 176.65-12.3L176.65-12.3Q176.65-10.28 176.6-6.21 176.55-2.15 176.55-0.1L176.55-0.1Q176.26 0.63 170.45 0.63L170.45 0.63ZM201.4-12.16L201.4-12.16Q201.5-24.17 201.5-30.08L201.5-30.08 201.5-30.37Q201.5-30.54 201.45-31.58 201.4-32.62 201.4-33.35L201.4-33.35Q201.4-36.28 201.89-36.67L201.89-36.67Q202.01-36.67 202.26-36.65 202.5-36.62 202.62-36.62L202.62-36.62Q206.73-36.82 212.15-36.82L212.15-36.82 215.47-36.82Q215.66-36.79 215.99-36.66 216.32-36.52 216.44-36.52L216.44-36.52Q216.47-35.33 216.55-32.4 216.64-29.47 216.67-27.32 216.71-25.17 216.69-23.1L216.69-23.1 216.69-13.57Q216.69-12.67 216.74-12.11 216.78-11.55 216.97-10.79 217.15-10.03 217.63-9.66 218.1-9.28 218.84-9.28L218.84-9.28Q219.86-9.28 220.5-10.14 221.13-11.01 221.13-12.16L221.13-12.16 221.13-21.09Q221.11-22.73 221.17-26.25 221.23-29.76 221.18-31.74L221.18-31.74 221.18-33.5Q221.18-33.76 221.13-34.31 221.08-34.86 221.08-35.16L221.08-35.16 221.08-36.33Q221.15-36.89 221.72-37.01L221.72-37.01Q226.4-37.01 235.78-36.91L235.78-36.91 235.78-36.52 236.85-36.52Q236.66-31.32 236.66-24.41L236.66-24.41 236.66-18.95Q236.66-17.85 236.61-15.58 236.56-13.31 236.56-12.21L236.56-12.21Q236.56-9.03 235.56-6.59 234.56-4.15 232.92-2.66 231.29-1.17 228.97-0.22 226.65 0.73 224.28 1.1 221.91 1.46 219.18 1.46L219.18 1.46Q216.54 1.46 214.23 1.14 211.93 0.81 209.56-0.13 207.19-1.07 205.48-2.54 203.77-4 202.65-6.47 201.53-8.94 201.4-12.16ZM240.81-3.32L240.81-3.32 240.81-36.18 261.9-36.91Q263.85-36.91 265.56-36.67 267.27-36.43 269.02-35.75 270.76-35.08 271.99-34.02 273.23-32.96 274.01-31.2 274.79-29.44 274.79-27.15L274.79-27.15Q274.79-24.1 273.45-22.2 272.1-20.31 269.42-18.85L269.42-18.85Q272.57-17.97 274.22-15.81 275.86-13.65 275.86-10.35L275.86-10.35Q275.86-7.91 274.94-5.97 274.01-4.03 272.54-2.81 271.08-1.59 269.1-0.78 267.12 0.02 265.18 0.35 263.24 0.68 261.22 0.68L261.22 0.68Q260.04 0.68 257.69 0.63 255.33 0.59 254.14 0.59L254.14 0.59Q247.35 0.59 241.68 0.78L241.68 0.78Q240.88-0.51 240.81-3.32ZM254.82-28.03L254.82-28.03Q254.82-26.93 254.89-24.76 254.97-22.58 254.97-21.48L254.97-21.48Q254.97-21.02 255.55-20.95L255.55-20.95Q255.89-21 256.74-21.11 257.58-21.22 258.07-21.29 258.55-21.36 259.25-21.64 259.95-21.92 260.34-22.31 260.73-22.71 261.02-23.45 261.31-24.19 261.31-25.2L261.31-25.2Q261.31-28.91 256.19-28.91L256.19-28.91Q255.16-28.74 254.99-28.56L254.99-28.56Q254.82-28.37 254.82-28.03ZM255.26-10.3L255.26-9.42Q255.26-7.62 255.45-7.62L255.45-7.62 256.24-7.62Q257.19-7.62 257.88-7.68 258.58-7.74 259.38-7.98 260.19-8.23 260.68-8.65 261.17-9.08 261.51-9.86 261.85-10.64 261.85-11.72L261.85-11.72Q261.85-12.33 261.73-12.84 261.61-13.35 261.34-13.72 261.07-14.09 260.81-14.36 260.56-14.62 260.08-14.81 259.6-14.99 259.3-15.1 258.99-15.21 258.38-15.28 257.77-15.36 257.5-15.38 257.24-15.41 256.58-15.44 255.92-15.48 255.75-15.48L255.75-15.48 255.75-14.55Q255.72-14.28 255.49-12.74 255.26-11.21 255.26-10.3L255.26-10.3Z" opacity="1" transform="matrix(1,0,0,1,0,0)" fill="#5352ed" class="wordmark-text-0" data-fill-palette-color="primary" id="text-0"></path></svg></g></svg></g></svg></g></svg></g><g><svg viewBox="0 0 205.55818072805138 205.55818072805138" height="205.55818072805138" width="205.55818072805138"><g><svg viewBox="0 0 205.55818072805138 205.55818072805138" height="205.55818072805138" width="205.55818072805138"><g transform="matrix(1,0,0,1,66.97680435725357,54.32856252363402)"><svg viewBox="0 0 71.60457201354423 96.90105568078334" height="96.90105568078334" width="71.60457201354423"><g><svg version="1.1" xmlns="http://www.w3.org/2000/svg" xmlns:xlink="http://www.w3.org/1999/xlink" x="0" y="0" viewBox="0.00021628569811582565 0.0010000000474974513 73.89378356933594 99.9990005493164" enable-background="new 0 0 73.894 100" xml:space="preserve" width="71.60457201354423" height="96.90105568078334" class="icon-s-0" data-fill-palette-color="accent" id="s-0"><path fill="#5352ed" d="M68.759 0.001C57.947 0.087 0.009 0.112 0.009 0.112-0.062 40.059 0.32 69.361 0.345 94.308L3.916 100h69.978V8.259h-2.12c-1.046-1.082-3.714-5.468-3.684-5.468 0.254-0.001 0.304 0.035 2.79 0C70.88 2.791 69.134 0.483 68.759 0.001L68.759 0.001zM28.022 2.792c13.441-0.036 28.818-0.054 36.496 0 0 0.053 3.412 5.219 3.683 5.469L6.482 7.813l-3.46-4.911C3.022 2.903 14.582 2.821 28.022 2.792L28.022 2.792zM10.835 11.497h5.134v86.049h-5.134V11.497z" data-fill-palette-color="accent"></path></svg></g></svg></g><g><path d="M17.073 79.966v0l-13.528-4.781 2.767-8.789c0.189-0.534 0.401-1.025 0.637-1.471 0.236-0.447 0.529-0.877 0.88-1.291 0.351-0.413 0.734-0.737 1.15-0.972 0.409-0.237 0.893-0.377 1.452-0.42 0.553-0.045 1.147 0.045 1.782 0.27v0c0.836 0.295 1.449 0.721 1.84 1.275 0.387 0.547 0.65 1.262 0.79 2.146v0c0.545-0.783 1.196-1.295 1.953-1.537 0.751-0.244 1.578-0.206 2.483 0.115v0c0.672 0.238 1.227 0.579 1.664 1.023 0.445 0.44 0.763 0.92 0.955 1.44 0.197 0.522 0.309 1.095 0.336 1.72 0.029 0.618-0.007 1.21-0.108 1.775-0.092 0.561-0.237 1.121-0.435 1.681v0c-0.113 0.321-0.291 0.802-0.532 1.445-0.241 0.643-0.42 1.128-0.535 1.454v0c-0.657 1.86-1.236 3.578-1.737 5.155v0c-0.43 0.096-1.034 0.016-1.814-0.238zM8.94 70.602v0c0.302 0.107 0.754 0.256 1.358 0.448 0.604 0.192 1.056 0.342 1.358 0.448v0c0.126 0.044 0.227-0.012 0.304-0.168v0c0.021-0.099 0.06-0.269 0.116-0.511 0.049-0.237 0.088-0.428 0.118-0.573 0.022-0.141 0.028-0.319 0.019-0.534-0.007-0.221-0.044-0.405-0.113-0.549-0.069-0.145-0.193-0.294-0.372-0.45-0.174-0.146-0.4-0.269-0.676-0.366v0c-1.018-0.36-1.775 0.161-2.27 1.563v0c-0.056 0.298-0.068 0.482-0.035 0.549v0c0.035 0.062 0.099 0.109 0.193 0.143zM16.3 73.001l0.367 0.13c0.49 0.173 0.745 0.232 0.766 0.175v0l0.113-0.32c0.091-0.258 0.165-0.486 0.221-0.686 0.048-0.195 0.076-0.415 0.085-0.659 0.015-0.242-0.013-0.453-0.084-0.634-0.073-0.174-0.199-0.346-0.38-0.516-0.18-0.17-0.418-0.307-0.713-0.411v0c-0.163-0.058-0.323-0.096-0.479-0.116-0.152-0.011-0.29 0-0.415 0.033-0.127 0.04-0.241 0.081-0.34 0.124-0.096 0.051-0.191 0.13-0.286 0.238-0.097 0.114-0.176 0.207-0.236 0.278-0.063 0.077-0.132 0.194-0.208 0.35-0.079 0.163-0.138 0.28-0.177 0.351-0.033 0.073-0.084 0.197-0.153 0.37-0.077 0.178-0.124 0.292-0.142 0.342v0l0.387 0.137c0.067 0.031 0.303 0.153 0.708 0.367 0.399 0.212 0.721 0.361 0.966 0.447z" fill="#5352ed" data-fill-palette-color="accent"></path><path d="M27.62 44.428v0l-0.857-0.796c-0.682-0.725-1.199-1.5-1.55-2.327-0.356-0.822-0.551-1.63-0.585-2.426-0.034-0.786 0.057-1.58 0.272-2.38 0.216-0.8 0.53-1.555 0.942-2.264 0.417-0.704 0.916-1.369 1.497-1.993v0c0.317-0.342 0.678-0.671 1.081-0.988 0.398-0.321 0.856-0.633 1.374-0.936 0.508-0.302 1.06-0.53 1.658-0.684 0.603-0.159 1.183-0.211 1.742-0.156v0c1.106 0.072 2.113 0.311 3.019 0.716 0.902 0.41 1.775 1.007 2.62 1.792v0c1.772 1.618 2.83 3.319 3.174 5.103v0l0.156 0.773c0.134 0.688 0.079 1.443-0.163 2.263-0.243 0.82-0.574 1.564-0.993 2.23-0.414 0.661-0.887 1.278-1.417 1.849v0c-0.621 0.669-1.266 1.226-1.934 1.671-0.663 0.44-1.3 0.758-1.91 0.955-0.611 0.197-1.229 0.305-1.856 0.323-0.627 0.018-1.218-0.035-1.774-0.161-0.557-0.135-1.109-0.334-1.656-0.596-0.552-0.267-1.056-0.562-1.512-0.885-0.455-0.323-0.898-0.684-1.327-1.083zM30.298 35.344v0c-0.2 0.215-0.325 0.453-0.377 0.714-0.061 0.262-0.071 0.512-0.029 0.751 0.037 0.234 0.139 0.502 0.306 0.803 0.162 0.296 0.322 0.549 0.481 0.76 0.154 0.216 0.366 0.468 0.636 0.755 0.275 0.292 0.488 0.513 0.64 0.662 0.161 0.15 0.366 0.34 0.616 0.572v0c0.239 0.222 0.476 0.423 0.708 0.603 0.229 0.185 0.494 0.359 0.798 0.522 0.294 0.164 0.576 0.281 0.848 0.351 0.267 0.075 0.541 0.084 0.821 0.026 0.281-0.058 0.526-0.189 0.736-0.395v0c0.213-0.23 0.365-0.466 0.454-0.71 0.09-0.253 0.13-0.493 0.122-0.719-0.004-0.231-0.065-0.479-0.183-0.743-0.123-0.269-0.255-0.509-0.394-0.721-0.14-0.212-0.335-0.457-0.587-0.736-0.246-0.274-0.464-0.504-0.655-0.69-0.191-0.186-0.435-0.418-0.733-0.694v0c-0.22-0.204-0.429-0.385-0.628-0.543-0.199-0.158-0.427-0.328-0.684-0.513-0.257-0.184-0.507-0.321-0.751-0.41-0.244-0.09-0.491-0.152-0.743-0.185-0.252-0.043-0.498-0.017-0.74 0.077-0.237 0.089-0.458 0.243-0.662 0.463z" fill="#5352ed" data-fill-palette-color="accent"></path><path d="M57.235 19.356v0l-0.47-1.071c-0.337-0.936-0.503-1.854-0.496-2.752 0.001-0.895 0.144-1.715 0.43-2.458 0.282-0.735 0.681-1.426 1.198-2.075 0.516-0.648 1.105-1.215 1.765-1.701 0.663-0.48 1.385-0.891 2.167-1.233v0c0.427-0.187 0.889-0.346 1.385-0.476 0.493-0.136 1.037-0.24 1.632-0.311 0.586-0.075 1.184-0.064 1.794 0.033 0.616 0.094 1.169 0.277 1.66 0.55v0c0.986 0.507 1.814 1.126 2.484 1.859 0.664 0.735 1.227 1.631 1.69 2.687v0c0.981 2.19 1.274 4.172 0.88 5.946v0l-0.165 0.77c-0.151 0.685-0.502 1.355-1.051 2.011-0.55 0.656-1.149 1.206-1.799 1.65-0.643 0.442-1.322 0.819-2.036 1.132v0c-0.836 0.366-1.649 0.621-2.439 0.763-0.783 0.139-1.494 0.178-2.132 0.115-0.639-0.062-1.249-0.21-1.831-0.442-0.582-0.233-1.103-0.517-1.564-0.854-0.457-0.346-0.884-0.748-1.282-1.207-0.4-0.465-0.745-0.936-1.034-1.414-0.289-0.477-0.551-0.985-0.786-1.522zM63.308 12.09v0c-0.269 0.118-0.479 0.286-0.63 0.505-0.16 0.216-0.269 0.442-0.326 0.678-0.059 0.23-0.072 0.516-0.039 0.857 0.031 0.336 0.077 0.632 0.139 0.889 0.055 0.26 0.15 0.575 0.283 0.946 0.136 0.377 0.244 0.665 0.323 0.862 0.088 0.201 0.201 0.458 0.337 0.77v0c0.131 0.299 0.268 0.578 0.41 0.835 0.136 0.261 0.311 0.526 0.523 0.797 0.204 0.267 0.417 0.487 0.638 0.659 0.215 0.175 0.463 0.292 0.744 0.352 0.281 0.059 0.558 0.036 0.831-0.07v0c0.287-0.126 0.52-0.282 0.7-0.47 0.183-0.197 0.316-0.4 0.399-0.611 0.088-0.213 0.131-0.465 0.127-0.755-0.006-0.296-0.031-0.569-0.074-0.819-0.044-0.25-0.126-0.553-0.245-0.908-0.117-0.349-0.225-0.647-0.326-0.894-0.101-0.247-0.233-0.557-0.396-0.929v0c-0.12-0.275-0.24-0.524-0.361-0.748-0.12-0.224-0.261-0.471-0.423-0.742-0.162-0.271-0.337-0.496-0.525-0.676-0.188-0.18-0.39-0.335-0.608-0.465-0.214-0.139-0.45-0.214-0.709-0.224-0.253-0.013-0.517 0.041-0.792 0.161z" fill="#5352ed" data-fill-palette-color="accent"></path><path d="M100.542 16.496l-4.689 0.011c-0.16 0-0.28-0.016-0.36-0.049-0.08-0.026-0.133-0.063-0.16-0.109-0.027-0.04-0.067-0.12-0.121-0.24v0l-0.035-15.157c0-0.16-0.001-0.273-0.001-0.34 0.006-0.073 0.02-0.157 0.04-0.25 0.02-0.1 0.053-0.17 0.099-0.211 0.047-0.033 0.113-0.067 0.2-0.1 0.08-0.027 0.187-0.04 0.32-0.041v0l4.369-0.01c1.02-0.002 1.53 0.123 1.53 0.376v0l0.001 0.03c-0.021 2.64-0.029 4.606-0.027 5.899v0l2.975-6.235 2.21 0.004c3.013-0.007 4.519 0.059 4.52 0.2v0c0 0.027-0.013 0.04-0.04 0.04v0c-1.374 2.489-2.768 4.966-4.182 7.428v0l0 0.3 0.441 0.279 4.467 7.648c0 0.113-0.079 0.237-0.239 0.371v0l-6.849 0.016-3.063-5.932c-0.039 0.387-0.068 0.953-0.086 1.7-0.018 0.747-0.037 1.237-0.057 1.47v0l0.006 2.519c-0.046 0.253-0.469 0.381-1.269 0.383z" fill="#5352ed" data-fill-palette-color="accent"></path><path d="M134.154 22.2l-1.16-0.492c-0.184-0.078-0.4-0.166-0.648-0.263-0.245-0.089-0.433-0.158-0.564-0.207-0.138-0.051-0.287-0.118-0.447-0.2-0.163-0.076-0.28-0.151-0.35-0.225-0.07-0.073-0.136-0.166-0.197-0.279-0.07-0.109-0.099-0.237-0.087-0.384 0.015-0.138 0.046-0.306 0.094-0.503 0.047-0.197 0.124-0.421 0.231-0.673v0c0.598-1.411 1.44-3.328 2.525-5.75 1.093-2.425 1.882-4.208 2.366-5.35v0c0.598-1.411 0.985-2.127 1.16-2.147v0l3.654 1.549c0.644 0.273 1.11 0.514 1.398 0.724 0.288 0.209 0.451 0.412 0.491 0.609 0.042 0.192-0.002 0.441-0.132 0.748v0c-0.039 0.092-0.122 0.27-0.249 0.535-0.124 0.259-0.224 0.477-0.299 0.655v0l-0.191 0.451c-0.088 0.209-0.23 0.518-0.426 0.928-0.201 0.407-0.346 0.715-0.435 0.923v0l-0.086 0.202c-0.003 0.042-0.019 0.097-0.048 0.165v0l0.396 0.167c0.11 0.047 0.281 0.123 0.512 0.228 0.224 0.102 0.392 0.177 0.502 0.224v0c0.301 0.127 0.531 0.2 0.69 0.217v0l1.729-4.078c0.138-0.325 0.255-0.551 0.352-0.676 0.091-0.128 0.174-0.198 0.251-0.209 0.071-0.013 0.186 0.014 0.346 0.082v0c0.086 0.036 0.223 0.098 0.41 0.184 0.188 0.087 0.321 0.147 0.401 0.181v0l0.739 0.281c0.499 0.19 0.941 0.367 1.328 0.53v0c1.78 0.754 2.586 1.328 2.42 1.721v0c-0.044 0.104-0.105 0.256-0.182 0.455-0.077 0.199-0.138 0.351-0.182 0.455v0c-0.096 0.227-0.241 0.56-0.435 1-0.191 0.433-0.334 0.763-0.431 0.99v0c-0.289 0.681-0.71 1.701-1.264 3.058-0.551 1.352-0.971 2.368-1.26 3.05v0c-0.026 0.061-0.06 0.134-0.103 0.217-0.045 0.089-0.073 0.146-0.083 0.171v0l-0.199 0.469c-0.177 0.417-0.303 0.733-0.38 0.947v0l-0.093 0.221c-0.023 0.019-0.046 0.057-0.07 0.112v0c-0.146 0.344-0.362 0.871-0.649 1.582-0.281 0.714-0.495 1.245-0.643 1.595v0c-0.148 0.212-0.826 0.062-2.035-0.451v0l-4.078-1.728-0.119-0.539 0.273-0.645c0.185-0.436 0.462-1.082 0.833-1.938 0.37-0.857 0.648-1.503 0.832-1.939v0c0.065-0.153 0.091-0.266 0.078-0.336-0.013-0.071-0.075-0.13-0.186-0.176v0l-0.359-0.153c-0.442-0.187-0.859-0.331-1.25-0.432v0c-0.229 0.54-0.581 1.354-1.057 2.441-0.473 1.081-0.826 1.898-1.06 2.45v0c-0.163 0.163-1.021-0.085-2.574-0.744z" fill="#5352ed" data-fill-palette-color="accent"></path><path d="M165.098 34.629v0c2.55-2.387 4.449-4.172 5.695-5.357v0l0.095-0.09c0.034-0.032 0.157-0.159 0.37-0.379 0.208-0.216 0.39-0.398 0.544-0.545v0c0.618-0.588 1.017-0.87 1.196-0.846v0c0.028 0.029 0.062 0.07 0.103 0.122 0.046 0.058 0.08 0.099 0.103 0.123v0c0.861 0.828 1.835 1.815 2.923 2.96v0l0.998 1.051c0.036 0.048 0.072 0.12 0.108 0.215 0.04 0.091 0.074 0.15 0.102 0.179v0c-0.251 0.248-0.68 0.673-1.285 1.276-0.595 0.602-1.115 1.124-1.56 1.566-0.45 0.436-0.897 0.861-1.341 1.274v0l-3.008 2.858c-0.193 0.184-0.343 0.335-0.45 0.455-0.107 0.129-0.222 0.289-0.344 0.479-0.123 0.19-0.177 0.37-0.162 0.541 0.014 0.18 0.095 0.347 0.241 0.501v0c0.207 0.217 0.466 0.307 0.779 0.267 0.308-0.044 0.582-0.181 0.823-0.41v0l2.827-2.686c0.338-0.331 0.887-0.843 1.644-1.535 0.753-0.688 1.333-1.239 1.74-1.653v0l0.551-0.524c0.058-0.055 0.14-0.143 0.247-0.262 0.107-0.12 0.192-0.21 0.254-0.269v0l0.37-0.352c0.135-0.1 0.271-0.102 0.41-0.003v0c0.941 0.991 2.341 2.483 4.2 4.477v0l-0.123 0.117 0.323 0.341c-1.138 0.999-2.437 2.192-3.896 3.578v0l-1.732 1.646c-0.232 0.22-0.592 0.553-1.079 0.998-0.488 0.445-0.847 0.778-1.079 0.998v0c-0.672 0.638-1.365 1.094-2.079 1.369-0.714 0.284-1.394 0.401-2.038 0.351-0.64-0.045-1.291-0.217-1.953-0.517-0.671-0.3-1.282-0.662-1.833-1.086-0.555-0.429-1.105-0.931-1.651-1.506v0c-0.528-0.556-0.99-1.11-1.387-1.662-0.391-0.557-0.724-1.178-0.999-1.864-0.275-0.686-0.43-1.357-0.465-2.013-0.035-0.656 0.093-1.348 0.386-2.077 0.297-0.733 0.774-1.435 1.432-2.106z" fill="#5352ed" data-fill-palette-color="accent"></path><path d="M183.494 66.176v0l13.453-4.984 3.499 8.524c0.197 0.531 0.348 1.044 0.453 1.538 0.105 0.494 0.155 1.012 0.149 1.555-0.005 0.542-0.092 1.036-0.261 1.482-0.162 0.444-0.445 0.861-0.847 1.253-0.396 0.389-0.91 0.7-1.541 0.933v0c-0.831 0.308-1.575 0.374-2.23 0.197-0.647-0.173-1.307-0.554-1.981-1.143v0c0.082 0.951-0.09 1.761-0.517 2.431-0.421 0.668-1.081 1.168-1.981 1.502v0c-0.669 0.248-1.313 0.341-1.934 0.279-0.624-0.053-1.176-0.218-1.655-0.496-0.486-0.275-0.939-0.644-1.358-1.106-0.418-0.456-0.769-0.934-1.054-1.434-0.288-0.49-0.535-1.014-0.741-1.569v0c-0.118-0.319-0.29-0.802-0.516-1.451-0.226-0.648-0.399-1.135-0.52-1.46v0c-0.685-1.85-1.34-3.541-1.965-5.073v0c0.269-0.348 0.784-0.674 1.547-0.978zM195.735 68.166v0c-0.3 0.111-0.743 0.286-1.33 0.525-0.587 0.239-1.03 0.414-1.33 0.525v0c-0.125 0.046-0.167 0.154-0.125 0.324v0c0.047 0.089 0.126 0.245 0.236 0.466 0.115 0.213 0.207 0.385 0.277 0.516 0.074 0.122 0.183 0.263 0.327 0.423 0.147 0.166 0.293 0.282 0.439 0.349 0.146 0.067 0.337 0.103 0.573 0.108 0.228 0.001 0.479-0.05 0.754-0.152v0c1.013-0.375 1.261-1.26 0.744-2.653v0c-0.148-0.265-0.256-0.413-0.325-0.445v0c-0.066-0.025-0.146-0.02-0.24 0.014zM188.545 71.033l-0.366 0.135c-0.488 0.181-0.721 0.299-0.7 0.356v0l0.118 0.318c0.095 0.256 0.185 0.479 0.269 0.668 0.088 0.181 0.207 0.367 0.357 0.561 0.144 0.196 0.3 0.34 0.47 0.434 0.167 0.087 0.375 0.138 0.622 0.153 0.247 0.015 0.518-0.032 0.811-0.14v0c0.163-0.06 0.31-0.133 0.442-0.217 0.124-0.088 0.223-0.186 0.298-0.292 0.072-0.112 0.133-0.216 0.182-0.313 0.041-0.1 0.063-0.222 0.067-0.366 0.001-0.15 0.003-0.271 0.004-0.364-0.001-0.099-0.022-0.233-0.064-0.402-0.044-0.176-0.073-0.303-0.088-0.383-0.022-0.077-0.062-0.205-0.121-0.382-0.055-0.186-0.091-0.304-0.109-0.354v0l-0.385 0.142c-0.071 0.019-0.331 0.076-0.779 0.171-0.442 0.093-0.785 0.184-1.028 0.275z" fill="#5352ed" data-fill-palette-color="accent"></path><path d="M6.325 130.91v0l13.582-4.805 3.386 8.612c0.189 0.534 0.332 1.049 0.43 1.545 0.104 0.494 0.147 1.016 0.13 1.566-0.013 0.542-0.108 1.035-0.283 1.478-0.167 0.448-0.454 0.864-0.863 1.249-0.415 0.387-0.936 0.692-1.564 0.915v0c-0.842 0.298-1.589 0.354-2.242 0.167-0.653-0.186-1.31-0.576-1.973-1.169v0c0.062 0.954-0.126 1.763-0.562 2.427-0.431 0.661-1.101 1.153-2.013 1.475v0c-0.672 0.238-1.32 0.326-1.943 0.263-0.625-0.069-1.179-0.244-1.66-0.526-0.478-0.291-0.925-0.666-1.343-1.126-0.413-0.469-0.762-0.954-1.045-1.455-0.277-0.503-0.514-1.034-0.712-1.593v0c-0.116-0.327-0.282-0.816-0.498-1.468-0.216-0.652-0.384-1.144-0.501-1.477v0c-0.662-1.873-1.295-3.579-1.896-5.12v0c0.274-0.344 0.797-0.664 1.57-0.958zM18.58 133.086v0c-0.302 0.107-0.748 0.275-1.338 0.505-0.588 0.236-1.036 0.409-1.344 0.518v0c-0.126 0.044-0.17 0.149-0.133 0.312v0c0.046 0.09 0.126 0.245 0.239 0.467 0.114 0.221 0.204 0.398 0.272 0.53 0.066 0.125 0.17 0.272 0.315 0.44 0.148 0.16 0.295 0.274 0.44 0.343 0.145 0.069 0.335 0.108 0.571 0.116 0.23 0.011 0.483-0.033 0.76-0.131v0c1.024-0.362 1.286-1.25 0.786-2.665v0c-0.15-0.265-0.255-0.412-0.315-0.44v0c-0.074-0.03-0.159-0.029-0.253 0.005zM11.32 135.856l-0.368 0.13c-0.496 0.176-0.735 0.292-0.715 0.348v0l0.114 0.321c0.093 0.264 0.184 0.49 0.272 0.678 0.079 0.184 0.192 0.374 0.339 0.569 0.149 0.202 0.307 0.348 0.473 0.437 0.162 0.098 0.37 0.156 0.623 0.172 0.247 0.019 0.518-0.024 0.813-0.128v0c0.17-0.06 0.317-0.133 0.442-0.22 0.133-0.083 0.237-0.179 0.311-0.291 0.074-0.111 0.136-0.214 0.187-0.31 0.045-0.094 0.069-0.215 0.072-0.365 0.004-0.15 0.007-0.271 0.01-0.363 0-0.099-0.019-0.234-0.058-0.404-0.035-0.179-0.063-0.307-0.083-0.384-0.02-0.078-0.06-0.209-0.118-0.394-0.052-0.187-0.086-0.302-0.101-0.346v0l-0.387 0.137c-0.078 0.02-0.338 0.074-0.781 0.16-0.445 0.08-0.794 0.164-1.045 0.253z" fill="#5352ed" data-fill-palette-color="accent"></path><path d="M28.896 161.431v0l0.864-0.803c0.778-0.632 1.594-1.095 2.449-1.389 0.85-0.289 1.673-0.422 2.47-0.397 0.796 0.025 1.585 0.174 2.367 0.448 0.782 0.274 1.514 0.645 2.195 1.113 0.676 0.463 1.307 1.01 1.892 1.641v0c0.318 0.342 0.622 0.728 0.913 1.158 0.291 0.43 0.568 0.91 0.831 1.438 0.263 0.538 0.452 1.113 0.567 1.726 0.11 0.608 0.119 1.191 0.027 1.749v0c-0.154 1.107-0.471 2.098-0.951 2.971-0.476 0.879-1.136 1.71-1.98 2.496v0c-1.754 1.657-3.536 2.594-5.346 2.81v0l-0.795 0.084c-0.696 0.083-1.447-0.025-2.252-0.324-0.805-0.308-1.524-0.695-2.158-1.161-0.629-0.462-1.211-0.981-1.747-1.557v0c-0.626-0.674-1.136-1.36-1.53-2.059-0.394-0.698-0.667-1.359-0.818-1.982-0.156-0.628-0.22-1.256-0.193-1.882 0.028-0.636 0.13-1.226 0.306-1.772 0.176-0.545 0.415-1.086 0.717-1.622 0.302-0.527 0.634-1.007 0.994-1.442 0.355-0.43 0.748-0.845 1.178-1.244zM37.8 164.786v0c-0.2-0.215-0.428-0.362-0.685-0.442-0.252-0.075-0.499-0.101-0.74-0.077-0.241 0.024-0.518 0.108-0.83 0.252-0.312 0.144-0.581 0.285-0.807 0.423-0.222 0.143-0.489 0.336-0.8 0.58-0.311 0.253-0.547 0.449-0.708 0.589-0.161 0.15-0.366 0.34-0.615 0.572v0c-0.244 0.227-0.465 0.45-0.661 0.669-0.206 0.219-0.399 0.471-0.58 0.757-0.19 0.285-0.33 0.561-0.42 0.826-0.09 0.266-0.119 0.538-0.086 0.817 0.037 0.284 0.152 0.541 0.346 0.77v0c0.213 0.23 0.44 0.401 0.682 0.513 0.241 0.103 0.477 0.161 0.708 0.175 0.226 0.008 0.478-0.034 0.755-0.128 0.277-0.103 0.529-0.219 0.755-0.347 0.222-0.124 0.48-0.301 0.777-0.531 0.291-0.225 0.539-0.428 0.744-0.609 0.2-0.177 0.449-0.403 0.746-0.68v0c0.22-0.204 0.416-0.4 0.588-0.587 0.177-0.192 0.366-0.409 0.569-0.651 0.198-0.247 0.35-0.489 0.458-0.726 0.108-0.237 0.19-0.476 0.246-0.72 0.061-0.248 0.054-0.496-0.023-0.743-0.076-0.248-0.216-0.482-0.419-0.702z" fill="#5352ed" data-fill-palette-color="accent"></path><path d="M57.914 186.089v0l0.473-1.081c0.462-0.889 1.027-1.639 1.694-2.249 0.665-0.604 1.367-1.053 2.107-1.347 0.74-0.294 1.524-0.472 2.351-0.532 0.827-0.06 1.646-0.011 2.456 0.148 0.805 0.156 1.601 0.406 2.389 0.751v0c0.427 0.187 0.86 0.42 1.298 0.699 0.438 0.279 0.883 0.609 1.335 0.989 0.456 0.389 0.858 0.841 1.207 1.358 0.343 0.514 0.583 1.045 0.721 1.593v0c0.3 1.077 0.403 2.112 0.311 3.104-0.087 0.995-0.361 2.021-0.824 3.078v0c-0.95 2.218-2.211 3.787-3.785 4.706v0l-0.696 0.393c-0.606 0.353-1.337 0.553-2.195 0.6-0.861 0.038-1.675-0.031-2.441-0.207-0.761-0.173-1.502-0.417-2.223-0.733v0c-0.843-0.369-1.584-0.795-2.223-1.279-0.64-0.484-1.153-0.981-1.54-1.493-0.393-0.514-0.702-1.064-0.926-1.649-0.227-0.594-0.369-1.177-0.425-1.747-0.056-0.57-0.052-1.161 0.013-1.774 0.068-0.603 0.18-1.176 0.338-1.718 0.155-0.536 0.35-1.073 0.585-1.61zM67.417 185.622v0c-0.269-0.118-0.537-0.162-0.803-0.134-0.261 0.031-0.498 0.106-0.71 0.225-0.212 0.118-0.432 0.306-0.661 0.562-0.229 0.256-0.42 0.493-0.572 0.709-0.147 0.219-0.315 0.503-0.503 0.85-0.185 0.356-0.323 0.63-0.415 0.822-0.088 0.201-0.201 0.458-0.337 0.77v0c-0.134 0.305-0.247 0.598-0.34 0.877-0.102 0.283-0.179 0.591-0.231 0.925-0.06 0.337-0.079 0.646-0.055 0.925 0.023 0.279 0.105 0.541 0.245 0.784 0.147 0.246 0.355 0.436 0.625 0.568v0c0.287 0.126 0.563 0.192 0.829 0.2 0.263-0.001 0.502-0.042 0.719-0.122 0.211-0.082 0.424-0.222 0.642-0.418 0.213-0.205 0.398-0.411 0.555-0.619 0.154-0.202 0.321-0.467 0.501-0.795 0.178-0.322 0.324-0.608 0.44-0.856 0.113-0.242 0.251-0.549 0.414-0.921v0c0.12-0.275 0.222-0.532 0.305-0.772 0.086-0.246 0.173-0.521 0.263-0.824 0.083-0.306 0.127-0.588 0.131-0.848 0.005-0.26-0.016-0.513-0.061-0.758-0.043-0.252-0.148-0.476-0.316-0.673-0.168-0.197-0.39-0.356-0.665-0.477z" fill="#5352ed" data-fill-palette-color="accent"></path><path d="M100.488 205.558l-4.709-0.011c-0.153 0-0.273-0.017-0.36-0.051-0.08-0.027-0.133-0.064-0.16-0.11-0.02-0.04-0.06-0.12-0.119-0.24v0l0.035-15.227c0-0.16 0.004-0.273 0.011-0.34 0-0.073 0.01-0.16 0.031-0.26 0.027-0.093 0.064-0.16 0.11-0.2 0.04-0.04 0.103-0.073 0.19-0.099 0.087-0.026 0.193-0.04 0.32-0.04v0l4.4 0.011c1.026 0.002 1.539 0.13 1.538 0.383v0l0 0.02c-0.04 2.659-0.061 4.639-0.064 5.939v0l3.025-6.262 2.219 0.015c3.026 0.007 4.539 0.084 4.539 0.231v0c0 0.027-0.013 0.04-0.04 0.04v0c-1.392 2.496-2.804 4.976-4.237 7.438v0l-0.001 0.3 0.44 0.281 4.451 7.709c0 0.113-0.081 0.236-0.241 0.37v0l-6.879-0.016-3.045-5.976c-0.041 0.393-0.076 0.963-0.104 1.709-0.022 0.753-0.04 1.246-0.054 1.48v0l-0.006 2.529c-0.054 0.253-0.484 0.379-1.29 0.377z" fill="#5352ed" data-fill-palette-color="accent"></path><path d="M139.928 198.568l-1.169 0.495c-0.178 0.075-0.388 0.168-0.631 0.279-0.24 0.116-0.424 0.205-0.55 0.265-0.132 0.063-0.283 0.127-0.451 0.191-0.171 0.058-0.307 0.087-0.409 0.087-0.102 0-0.217-0.017-0.346-0.049-0.121-0.028-0.23-0.098-0.327-0.209-0.095-0.105-0.197-0.242-0.306-0.413-0.109-0.171-0.218-0.386-0.327-0.644v0c-0.601-1.418-1.394-3.366-2.378-5.844-0.985-2.478-1.721-4.291-2.207-5.438v0c-0.603-1.424-0.851-2.206-0.745-2.346v0l3.664-1.552c0.651-0.276 1.152-0.441 1.506-0.497 0.35-0.062 0.61-0.038 0.779 0.072 0.173 0.1 0.326 0.307 0.458 0.62v0c0.039 0.092 0.105 0.274 0.199 0.545 0.1 0.269 0.187 0.493 0.263 0.671v0l0.195 0.46c0.088 0.209 0.212 0.526 0.37 0.951 0.161 0.431 0.286 0.751 0.374 0.96v0l0.086 0.202c0.028 0.032 0.056 0.081 0.085 0.149v0l0.395-0.168c0.11-0.047 0.284-0.117 0.52-0.209 0.23-0.09 0.4-0.159 0.51-0.205v0c0.301-0.127 0.516-0.244 0.645-0.349v0l-1.736-4.097c-0.14-0.331-0.225-0.574-0.254-0.728-0.023-0.157-0.013-0.262 0.028-0.317 0.046-0.063 0.148-0.128 0.308-0.195v0c0.086-0.036 0.225-0.092 0.419-0.167 0.193-0.074 0.332-0.13 0.418-0.166v0l0.715-0.336c0.481-0.233 0.914-0.431 1.301-0.594v0c1.792-0.759 2.773-0.94 2.942-0.541v0c0.044 0.104 0.111 0.253 0.2 0.447 0.089 0.194 0.156 0.343 0.2 0.447v0c0.099 0.233 0.237 0.569 0.416 1.008 0.181 0.444 0.321 0.783 0.42 1.016v0c0.289 0.681 0.73 1.696 1.323 3.045 0.591 1.342 1.03 2.354 1.319 3.035v0c0.026 0.061 0.055 0.139 0.088 0.234 0.03 0.089 0.051 0.145 0.061 0.17v0l0.203 0.479c0.177 0.417 0.317 0.731 0.42 0.94v0l0.09 0.212c-0.002 0.03 0.009 0.072 0.032 0.127v0c0.148 0.35 0.378 0.875 0.69 1.576 0.314 0.707 0.545 1.235 0.693 1.585v0c0.056 0.251-0.524 0.635-1.739 1.149v0l-4.106 1.74-0.47-0.29-0.273-0.644c-0.187-0.442-0.46-1.094-0.818-1.956-0.361-0.868-0.633-1.52-0.818-1.955v0c-0.065-0.153-0.128-0.25-0.187-0.29-0.06-0.04-0.146-0.036-0.257 0.011v0l-0.349 0.148c-0.448 0.19-0.846 0.387-1.193 0.593v0c0.231 0.546 0.573 1.368 1.023 2.466 0.453 1.104 0.797 1.932 1.031 2.484v0c0.003 0.23-0.777 0.677-2.343 1.34z" fill="#5352ed" data-fill-palette-color="accent"></path><path d="M167.722 175.003v0c-2.527-2.44-4.416-4.255-5.667-5.444v0l-0.094-0.09c-0.039-0.037-0.171-0.154-0.398-0.35-0.231-0.202-0.424-0.376-0.579-0.523v0c-0.618-0.588-0.92-0.972-0.906-1.152v0c0.023-0.024 0.062-0.06 0.118-0.109 0.055-0.049 0.095-0.085 0.117-0.109v0c0.783-0.911 1.722-1.941 2.815-3.09v0l0.999-1.051c0.046-0.039 0.116-0.078 0.209-0.118 0.098-0.045 0.158-0.079 0.182-0.104v0c0.261 0.239 0.709 0.642 1.345 1.211 0.641 0.573 1.191 1.073 1.651 1.5 0.463 0.422 0.912 0.845 1.347 1.268v0l3.028 2.88c0.188 0.179 0.348 0.321 0.478 0.426 0.13 0.105 0.293 0.214 0.489 0.327 0.196 0.113 0.381 0.155 0.555 0.128 0.179-0.023 0.341-0.112 0.488-0.267v0c0.207-0.217 0.283-0.481 0.228-0.791-0.055-0.31-0.203-0.58-0.445-0.809v0l-2.84-2.701c-0.352-0.326-0.896-0.847-1.631-1.564-0.73-0.722-1.31-1.278-1.739-1.668v0l-0.558-0.53c-0.058-0.055-0.149-0.133-0.274-0.234-0.125-0.101-0.219-0.181-0.282-0.24v0l-0.37-0.352c-0.107-0.129-0.117-0.263-0.031-0.402v0c0.946-0.995 2.373-2.476 4.28-4.443v0l0.123 0.117 0.324-0.34c1.065 1.086 2.329 2.325 3.792 3.716v0l1.739 1.654c0.232 0.22 0.585 0.565 1.058 1.034 0.464 0.469 0.815 0.816 1.052 1.042v0c0.671 0.638 1.167 1.307 1.486 2.006 0.315 0.704 0.464 1.379 0.447 2.026-0.012 0.651-0.153 1.317-0.424 1.998-0.261 0.681-0.592 1.309-0.992 1.884-0.4 0.576-0.876 1.154-1.427 1.734v0c-0.533 0.56-1.065 1.052-1.597 1.475-0.536 0.419-1.142 0.785-1.818 1.1-0.676 0.314-1.34 0.505-1.994 0.573-0.658 0.064-1.361-0.034-2.108-0.293-0.747-0.259-1.472-0.701-2.176-1.325z" fill="#5352ed" data-fill-palette-color="accent"></path><path d="M194.158 144.913v0l-13.508-5.012 2.918-8.782c0.197-0.531 0.417-1.018 0.659-1.461 0.236-0.446 0.538-0.874 0.904-1.286 0.357-0.408 0.746-0.726 1.164-0.954 0.415-0.237 0.902-0.373 1.463-0.407 0.566-0.032 1.162 0.069 1.787 0.301v0c0.837 0.311 1.447 0.747 1.829 1.307 0.382 0.561 0.637 1.282 0.765 2.162v0c0.564-0.772 1.226-1.273 1.987-1.503 0.754-0.232 1.585-0.18 2.491 0.156v0c0.669 0.248 1.222 0.596 1.66 1.043 0.436 0.453 0.749 0.943 0.938 1.468 0.18 0.529 0.284 1.104 0.309 1.725 0.017 0.625-0.026 1.22-0.129 1.786-0.11 0.564-0.268 1.124-0.474 1.68v0c-0.121 0.325-0.307 0.807-0.558 1.446-0.251 0.639-0.438 1.124-0.562 1.455v0c-0.691 1.862-1.299 3.578-1.824 5.146v0c-0.431 0.089-1.038-0.001-1.819-0.27zM186.142 135.391v0c0.3 0.111 0.75 0.268 1.351 0.469 0.603 0.195 1.058 0.35 1.363 0.464v0c0.125 0.046 0.226-0.005 0.303-0.155v0c0.022-0.098 0.061-0.269 0.115-0.512 0.055-0.243 0.098-0.436 0.13-0.58 0.03-0.138 0.043-0.318 0.041-0.54-0.012-0.218-0.051-0.399-0.118-0.545-0.067-0.146-0.188-0.297-0.365-0.455-0.17-0.155-0.392-0.284-0.667-0.386v0c-1.019-0.378-1.789 0.136-2.31 1.542v0c-0.054 0.3-0.068 0.48-0.04 0.539v0c0.038 0.071 0.103 0.124 0.197 0.159zM193.491 137.915l0.366 0.136c0.494 0.183 0.751 0.247 0.772 0.19v0l0.118-0.318c0.097-0.262 0.173-0.494 0.226-0.695 0.057-0.192 0.092-0.41 0.104-0.655 0.015-0.25-0.013-0.463-0.083-0.638-0.061-0.179-0.184-0.356-0.368-0.531-0.178-0.173-0.413-0.313-0.707-0.423v0c-0.169-0.063-0.329-0.101-0.481-0.114-0.155-0.022-0.297-0.014-0.424 0.024-0.128 0.038-0.242 0.077-0.343 0.118-0.094 0.043-0.191 0.121-0.289 0.234-0.099 0.113-0.179 0.204-0.24 0.273-0.064 0.076-0.135 0.192-0.214 0.348-0.088 0.159-0.148 0.276-0.183 0.348-0.034 0.073-0.088 0.198-0.161 0.377-0.08 0.177-0.128 0.287-0.144 0.331v0l0.384 0.142c0.073 0.034 0.307 0.16 0.702 0.378 0.393 0.224 0.715 0.383 0.965 0.475z" fill="#5352ed" data-fill-palette-color="accent"></path><path d="M1.929 103.532c0-3.485 2.825-6.309 6.31-6.309 3.485 0 6.309 2.825 6.309 6.309 0 3.485-2.825 6.309-6.309 6.31-3.485 0-6.309-2.825-6.31-6.31z" fill="#5352ed" data-fill-palette-color="accent"></path><path d="M191.01 103.532c0-3.485 2.825-6.309 6.309-6.309 3.485 0 6.309 2.825 6.31 6.309 0 3.485-2.825 6.309-6.31 6.31-3.485 0-6.309-2.825-6.309-6.31z" fill="#5352ed" data-fill-palette-color="accent"></path></g></svg></g></svg></g></svg></g><defs></defs></svg><rect width="395.5199999999999" height="128.11390052971646" fill="none" stroke="none" visibility="hidden"></rect></g></svg></g></svg>